<svg fill="none" height="41" viewBox="0 0 40 41" width="40" xmlns="http://www.w3.org/2000/svg">
    <path
        d="M19.8025 14.9769C17.4654 14.9769 15.1282 14.9769 12.791 14.9769C12.708 14.9769 12.6251 14.9769 12.5421 14.9769C11.7898 14.9597 11.601 14.7194 11.7154 13.9814C12.0644 11.7443 13.4604 10.374 15.4228 9.46434C15.789 9.29556 16.1523 9.1182 16.5299 8.97803C16.7788 8.88648 16.8188 8.73773 16.7073 8.5432C16.5299 8.23997 16.3325 7.94532 16.1294 7.65925C15.8262 7.22443 15.4743 6.82107 15.2083 6.36336C14.9051 5.837 15.0738 5.31635 15.357 4.81573C15.4572 4.64123 15.5487 4.42668 15.543 4.23501C15.4314 1.17981 18.212 -0.279143 20.3804 0.0441141C22.1798 0.313018 23.5643 1.53167 23.899 3.20231C23.9076 3.24808 23.9276 3.29671 23.9248 3.34248C23.8847 4.05479 24.0507 4.69844 24.3882 5.3421C24.6771 5.89421 24.3339 6.4263 24.0478 6.90117C23.8847 7.17007 23.613 7.37032 23.4242 7.62778C23.201 7.92529 23.0036 8.24855 22.8063 8.56609C22.6832 8.76347 22.7519 8.88648 22.9636 8.97803C23.4728 9.1983 23.9849 9.42143 24.4826 9.67317C25.7785 10.3283 26.8312 11.2494 27.3862 12.6225C27.6008 13.1546 27.718 13.7325 27.8353 14.296C27.9069 14.6365 27.5722 14.9569 27.1717 14.9597C25.7013 14.9683 24.228 14.9683 22.7576 14.9683C21.7735 14.9683 20.7895 14.9683 19.8025 14.9683C19.8025 14.9712 19.8025 14.974 19.8025 14.9797V14.9769ZM22.7262 4.10342C22.7347 2.76462 22.0425 1.71761 20.8667 1.39436C20.4319 1.27421 19.9542 1.26563 19.4964 1.26849C17.8315 1.27993 16.6215 2.58154 16.7788 4.22643C16.8274 4.73563 16.7931 5.15615 16.4012 5.51088C16.2238 5.67108 16.2181 5.8656 16.3697 6.04583C16.6443 6.36908 16.9333 6.67804 17.205 7.00129C17.3452 7.16721 17.4797 7.34458 17.5884 7.53052C17.8001 7.89383 17.9259 8.32865 18.2006 8.62902C18.7527 9.23263 19.4564 9.60738 20.3003 9.30986C21.0698 9.0381 21.6219 8.5146 21.8937 7.70502C21.9824 7.44184 22.1941 7.21585 22.3686 6.98699C22.6117 6.66946 22.8864 6.37767 23.1267 6.05727C23.2926 5.837 23.2554 5.60814 23.038 5.43078C22.7233 5.17046 22.606 4.85578 22.7176 4.45529C22.749 4.34658 22.7233 4.22071 22.7233 4.10056L22.7262 4.10342ZM12.9855 13.7153H26.5223C26.4765 13.5809 26.445 13.4836 26.4136 13.3835C26.0102 12.2077 25.1806 11.401 24.1193 10.826C23.4871 10.4827 22.8034 10.2367 22.1569 9.91633C21.928 9.8019 21.785 9.83623 21.5847 9.97068C20.7351 10.54 19.8311 10.8775 18.8127 10.437C18.5095 10.3054 18.2406 10.1051 17.9374 9.97354C17.7829 9.90489 17.5569 9.84767 17.4196 9.90775C16.5786 10.2825 15.7203 10.6372 14.9308 11.1035C13.9553 11.6814 13.2859 12.5424 12.9855 13.7153Z"
        fill="#95C9D8" />
    <path
        d="M5.23446 30.708C4.9484 30.3133 4.63086 29.8956 4.33335 29.4608C4.03298 29.0231 3.7183 28.5911 3.47514 28.1248C3.26059 27.7158 3.34069 27.2809 3.64106 26.9262C3.85561 26.6688 3.92427 26.3941 3.91283 26.0737C3.83273 23.8739 5.51481 22.3434 7.28557 22.0116C9.46541 21.6025 11.6653 22.9041 12.2145 24.9867C12.3061 25.3357 12.2775 25.7161 12.3375 26.0766C12.3833 26.3484 12.4291 26.6401 12.5693 26.8661C12.8782 27.3725 12.9326 27.8788 12.6465 28.3794C12.4205 28.7771 12.1087 29.1232 11.8398 29.498C11.6395 29.7755 11.4221 30.0415 11.2591 30.339C11.0102 30.7939 11.0588 30.8253 11.5194 31.0313C12.1773 31.3259 12.8353 31.6292 13.4561 31.9925C14.8893 32.8249 15.7274 34.1037 16.1165 35.6971C16.3482 36.6411 16.1222 36.9214 15.1582 36.9157C12.5378 36.9014 9.91454 36.8842 7.29416 36.8842C5.17153 36.8842 3.04604 36.91 0.923415 36.9272C0.108121 36.9329 -0.106431 36.6869 0.0451856 35.8973C0.359861 34.2839 1.16371 32.9737 2.57117 32.1069C3.39218 31.6006 4.28186 31.2058 5.24018 30.708H5.23446ZM11.0588 26.1681C11.0588 24.6291 10.4638 23.6936 9.11355 23.3332C8.58146 23.1902 7.98072 23.193 7.42861 23.2617C6.20137 23.419 5.38608 24.2315 5.17725 25.4415C5.10859 25.8334 5.14292 26.2454 5.15723 26.6459C5.16581 26.9005 5.11432 27.1093 4.90549 27.2724C4.66805 27.4554 4.60797 27.6986 4.74529 27.9646C4.84255 28.1506 4.93695 28.3566 5.08571 28.4967C5.57488 28.9573 5.98682 29.4579 6.18993 30.113C6.2214 30.2131 6.28433 30.3047 6.35299 30.3876C7.26841 31.4861 8.46703 31.7837 9.59128 30.6766C9.85447 30.4191 10.0576 30.0758 10.2092 29.7383C10.3751 29.375 10.5611 29.0603 10.8643 28.7885C11.1046 28.574 11.2819 28.2822 11.4622 28.0076C11.6281 27.753 11.5709 27.5127 11.3249 27.3239C11.1074 27.1579 11.0331 26.9348 11.056 26.6659C11.0703 26.5 11.056 26.3341 11.0588 26.1681ZM1.36396 35.677H14.8006C14.7491 35.451 14.7291 35.2508 14.6576 35.0734C14.3085 34.1952 13.7192 33.4972 12.8982 33.0424C12.123 32.6133 11.2991 32.2786 10.5067 31.8809C10.275 31.7636 10.1262 31.7751 9.91168 31.9295C8.87325 32.6819 7.78047 32.865 6.6362 32.1441C6.41593 32.0068 6.18993 31.8752 5.98396 31.7522C5.65784 31.8895 5.34031 32.0182 5.02563 32.1498C3.97004 32.5904 2.9402 33.0738 2.18498 33.9778C1.78162 34.4613 1.46694 34.9991 1.3611 35.677H1.36396Z"
        fill="#95C9D8" />
    <path
        d="M34.3336 30.7187C35.3063 31.2422 36.2017 31.6541 37.0284 32.1776C38.4759 33.0959 39.2311 34.4862 39.5 36.1568C39.5744 36.6174 39.3541 36.8949 38.885 36.9121C38.4358 36.9292 37.9839 36.8892 37.5347 36.8892C33.9417 36.8949 30.3458 36.9035 26.7528 36.9121C25.9003 36.9121 25.045 36.9207 24.1925 36.9092C23.4173 36.8978 23.197 36.606 23.36 35.8508C23.7148 34.1916 24.5587 32.8642 26.0376 32.0031C26.7099 31.6112 27.4251 31.2937 28.1374 30.9733C28.4292 30.8417 28.5436 30.713 28.3491 30.4269C28.1517 30.1351 27.9543 29.8433 27.7541 29.5544C27.448 29.1081 27.0932 28.6876 26.8444 28.2127C26.6155 27.7722 26.687 27.3088 26.9702 26.8654C27.119 26.6308 27.2191 26.3218 27.2191 26.0472C27.2191 23.8016 28.7124 22.3998 30.5203 22.0337C32.5972 21.616 34.9801 22.7116 35.5094 24.9802C35.6009 25.3692 35.578 25.7812 35.6438 26.1759C35.681 26.4105 35.7382 26.668 35.8698 26.8568C36.2102 27.3374 36.2446 27.8437 35.9871 28.33C35.764 28.7534 35.4235 29.1138 35.1461 29.5115C34.86 29.9206 34.5911 30.3411 34.3422 30.7158L34.3336 30.7187ZM34.3823 26.3647C34.428 25.5437 34.3136 24.8457 33.8387 24.2421C32.8632 23.0006 31.0524 23.0177 30.097 23.4211C28.8697 23.9389 28.2718 25.0517 28.4549 26.4906C28.5007 26.8425 28.4521 27.1171 28.1603 27.3374C27.9228 27.5176 27.8828 27.7607 28.0458 27.9953C28.2661 28.3129 28.5322 28.6018 28.7639 28.9107C28.9527 29.1596 29.1815 29.4028 29.2902 29.686C29.6106 30.527 30.1885 31.0677 31.0381 31.3137C31.2527 31.3766 31.5101 31.3824 31.7275 31.3309C32.58 31.1278 33.1464 30.59 33.504 29.7832C33.6556 29.44 33.9331 29.1482 34.1534 28.8364C34.3708 28.5303 34.6168 28.2413 34.7913 27.9124C34.8571 27.7894 34.8171 27.4976 34.717 27.4175C34.3365 27.1028 34.325 26.7137 34.3823 26.3676V26.3647ZM38.1383 35.6734C38.0954 35.4932 38.0754 35.3673 38.0325 35.2472C37.6806 34.2373 37.0084 33.4792 36.0958 32.9672C35.3549 32.5524 34.5568 32.2406 33.7901 31.8715C33.5698 31.7657 33.4211 31.7972 33.2151 31.9402C32.1853 32.6668 31.1068 32.8785 29.9739 32.1576C29.7937 32.0432 29.6164 31.9259 29.4276 31.8286C29.356 31.7914 29.2445 31.7743 29.1758 31.8029C28.5236 32.0804 27.8656 32.3521 27.2306 32.664C26.1835 33.1789 25.3225 33.8998 24.8619 35.0126C24.7789 35.2157 24.7532 35.4445 24.6988 35.6734H38.1383Z"
        fill="#95C9D8" />
    <path
        d="M20.1796 40.9822C17.0557 40.9221 14.4439 40.3328 11.978 39.1285C11.8721 39.077 11.7692 39.014 11.6747 38.9454C11.3658 38.7222 11.2943 38.4676 11.4631 38.1873C11.6519 37.8726 11.9494 37.7782 12.2812 37.947C13.7573 38.6965 15.2992 39.2972 16.9413 39.4946C18.3001 39.6605 19.6847 39.7035 21.0521 39.6663C23.4007 39.6005 25.5805 38.8596 27.6402 37.7468C27.9692 37.5694 28.2896 37.6552 28.467 37.9584C28.65 38.2703 28.5585 38.5992 28.2038 38.7938C26.453 39.7492 24.5993 40.41 22.6226 40.699C21.6871 40.8363 20.7431 40.9192 20.1824 40.9822H20.1796Z"
        fill="#95C9D8" />
    <path
        d="M36.123 22.4459C35.9914 19.5624 35.1103 16.9248 33.5627 14.499C32.4413 12.7396 31.031 11.2521 29.3261 10.0449C29.1916 9.95047 29.0571 9.85035 28.9341 9.73878C28.671 9.50134 28.6338 9.23244 28.8168 8.98356C29.0257 8.70035 29.3003 8.60309 29.5807 8.81764C30.4532 9.48418 31.3686 10.1193 32.1438 10.8916C34.9759 13.7037 36.6751 17.1022 37.1901 21.0728C37.2644 21.6364 37.3188 22.2028 37.3789 22.7663C37.3932 22.9065 37.3903 23.0495 37.3875 23.1926C37.3731 23.696 37.1128 24.0308 36.7467 24.025C36.4177 24.0193 36.1431 23.6617 36.123 23.1954C36.1116 22.9466 36.123 22.6977 36.123 22.4488V22.4459Z"
        fill="#95C9D8" />
    <path
        d="M2.18508 22.7837C2.50547 17.2569 4.79974 12.82 9.07074 9.41003C9.34823 9.18976 9.6486 8.99523 9.95183 8.81215C10.2608 8.62335 10.5583 8.70344 10.7442 8.99237C10.9216 9.267 10.8558 9.53876 10.5812 9.76476C9.82596 10.3769 9.02497 10.9434 8.33554 11.6213C5.54352 14.359 3.94154 17.6974 3.46666 21.5765C3.40373 22.0914 3.44664 22.6207 3.41517 23.1413C3.40373 23.3587 3.39229 23.6305 3.26355 23.7735C3.1291 23.9223 2.81157 24.0596 2.65709 23.9967C2.45684 23.9137 2.2852 23.6505 2.20224 23.4245C2.12786 23.2157 2.18508 22.9554 2.18508 22.7866V22.7837Z"
        fill="#95C9D8" />
</svg>
